<svg width="35" height="36" viewBox="0 0 35 36" fill="none" xmlns="http://www.w3.org/2000/svg">
<path d="M8.48425 11.6138H1.18921V34.102H8.48425V11.6138Z" fill="#808080"/>
<path d="M28.3546 11.8775C28.2772 11.8532 28.2038 11.8267 28.1225 11.8038C28.0242 11.7815 27.9267 11.7628 27.8266 11.7469C27.4396 11.669 27.0149 11.6138 26.5177 11.6138C22.265 11.6138 19.5671 14.7154 18.6787 15.9132V11.6138H11.3835V34.102H18.6786V21.8358C18.6786 21.8358 24.1913 14.1366 26.5176 19.7911V34.102H33.8108V18.9266C33.8108 15.5286 31.4882 12.6973 28.3546 11.8775Z" fill="#808080"/>
<path d="M8.32531 4.96968C8.32531 6.94588 6.72755 8.5474 4.75729 8.5474C2.7869 8.5474 1.18921 6.94581 1.18921 4.96968C1.18921 2.99389 2.7869 1.39209 4.75729 1.39209C6.72755 1.39209 8.32531 2.99389 8.32531 4.96968Z" fill="#808080"/>
</svg>
