<svg width="35" height="36" viewBox="0 0 35 36" fill="none" xmlns="http://www.w3.org/2000/svg">
<path d="M23.4605 1.75098H11.5063C6.00564 1.75098 1.57227 6.18497 1.57227 11.6602V23.5601C1.57227 29.0357 6.00564 33.5381 11.5063 33.5381H23.4605C28.9611 33.5381 33.4961 29.0357 33.4961 23.5601V11.6602C33.4961 6.18497 28.9611 1.75098 23.4605 1.75098ZM30.4883 23.5601C30.4883 27.3875 27.3053 30.5303 23.4605 30.5303H11.5063C7.6611 30.5303 4.51172 27.3875 4.51172 23.5601V11.6602C4.51172 7.83311 7.6611 4.69043 11.5063 4.69043H23.4605C27.3053 4.69043 30.4883 7.83311 30.4883 11.6602V23.5601Z" fill="#808080"/>
<path d="M17.4833 9.67725C13.0822 9.67725 9.51392 13.2293 9.51392 17.6107C9.51392 21.9915 13.0822 25.5435 17.4833 25.5435C21.8845 25.5435 25.4527 21.9915 25.4527 17.6107C25.4527 13.2293 21.8845 9.67725 17.4833 9.67725ZM17.4833 22.5687C14.7377 22.5687 12.5027 20.3436 12.5027 17.6107C12.5027 14.8752 14.7377 12.6523 17.4833 12.6523C20.2288 12.6523 22.4641 14.8753 22.4641 17.6107C22.4641 20.3436 20.2288 22.5687 17.4833 22.5687Z" fill="#808080"/>
<path d="M26.0504 8.0249C25.4639 8.0249 24.9883 8.49822 24.9883 9.08194C24.9883 9.66573 25.4639 10.1393 26.0504 10.1393C26.6365 10.1393 27.1122 9.66573 27.1122 9.08194C27.1122 8.49822 26.6365 8.0249 26.0504 8.0249Z" fill="#808080"/>
</svg>
