<svg width="18" height="18" viewBox="0 0 18 18" fill="none" xmlns="http://www.w3.org/2000/svg">
<g clip-path="url(#clip0_2_768)">
<path d="M13.2949 3.74382L17.6367 7.45407V9.8131C17.6367 11.1106 17.6202 12.1721 17.6001 12.1721C17.58 12.1721 16.1187 10.9375 14.3529 9.42849C12.5518 7.88926 11.105 6.68484 11.0573 6.68484C10.9768 6.68484 10.9715 6.9823 10.9599 12.2449L10.9475 17.8049H8.90429H6.86104L6.8487 12.2657C6.83702 7.02287 6.83181 6.72641 6.75127 6.72641C6.70353 6.72641 5.26724 7.92191 3.47996 9.44927C1.72755 10.9468 0.277271 12.1721 0.257128 12.1721C0.236984 12.1721 0.220501 11.1108 0.220501 9.81356V7.45498L4.56202 3.74428C6.94986 1.70339 8.9147 0.0335693 8.92834 0.0335693C8.94198 0.0335693 10.9069 1.70318 13.2949 3.74382Z" fill="#030D22"/>
</g>
<defs>
<clipPath id="clip0_2_768">
<rect width="18" height="18" fill="white" transform="matrix(-1 0 0 -1 18 18)"/>
</clipPath>
</defs>
</svg>
