<svg width="18" height="18" viewBox="0 0 18 18" fill="none" xmlns="http://www.w3.org/2000/svg">
<g clip-path="url(#clip0_2_772)">
<path d="M4.70507 14.2562L0.363281 10.5459L0.363281 8.1869C0.363281 6.88943 0.379762 5.82786 0.399906 5.82786C0.42005 5.82786 1.88127 7.06251 3.64707 8.57151C5.44822 10.1107 6.89496 11.3152 6.9427 11.3152C7.02324 11.3152 7.02845 11.0177 7.04013 5.75511L7.05247 0.195068L9.09571 0.195068L11.139 0.195068L11.1513 5.73433C11.163 10.9771 11.1682 11.2736 11.2487 11.2736C11.2965 11.2736 12.7328 10.0781 14.52 8.55073C16.2725 7.05315 17.7227 5.82786 17.7429 5.82786C17.763 5.82786 17.7795 6.88922 17.7795 8.18644V10.545L13.438 14.2557C11.0501 16.2966 9.0853 17.9664 9.07166 17.9664C9.05802 17.9664 7.09306 16.2968 4.70507 14.2562Z" fill="#030D22"/>
</g>
<defs>
<clipPath id="clip0_2_772">
<rect width="18" height="18" fill="white"/>
</clipPath>
</defs>
</svg>
