<svg width="1410" height="782" viewBox="0 0 1410 782" fill="none" xmlns="http://www.w3.org/2000/svg">
<path d="M474.963 781.247V195.312L939.476 0V510.474L474.963 781.247Z" fill="url(#paint0_linear_310_478)"/>
<path d="M464.513 781.246V195.311L49.2754 20.7182C25.8708 10.8771 0 28.0641 0 53.4533V469.667C0 494.933 13.425 518.299 35.2551 531.026L464.513 781.246Z" fill="#EAEAEA"/>
<path d="M1356.6 750.121C1380.28 763.921 1410 746.845 1410 719.444V242.492C1410 213.906 1392.86 188.107 1366.5 177.024L945.486 0V510.473L1356.6 750.121Z" fill="url(#paint1_linear_310_478)"/>
<path d="M443.89 701.673C443.89 704.234 445.2 706.618 447.357 707.989L468.304 721.32L489.252 707.989C491.409 706.618 492.718 704.234 492.718 701.673C492.718 695.76 486.193 692.178 481.208 695.352L468.304 703.564L455.4 695.352C450.416 692.178 443.89 695.76 443.89 701.673Z" fill="black" fill-opacity="0.7"/>
<path d="M443.89 257.785C443.89 260.346 445.2 262.73 447.357 264.101L468.304 277.431L489.252 264.101C491.409 262.73 492.718 260.346 492.718 257.785C492.718 251.872 486.193 248.29 481.208 251.464L468.304 259.676L455.4 251.464C450.416 248.29 443.89 251.872 443.89 257.785Z" fill="black" fill-opacity="0.7"/>
<path d="M918.853 72.9121C918.853 70.3518 920.163 67.9681 922.32 66.5933L943.267 53.2646L964.214 66.5933C966.371 67.9681 967.681 70.3518 967.681 72.9121C967.681 78.8225 961.156 82.4043 956.171 79.2313L943.267 71.0203L930.363 79.2313C925.378 82.4043 918.853 78.8225 918.853 72.9121Z" fill="black" fill-opacity="0.7"/>
<path d="M918.853 459.098C918.853 456.537 920.163 454.153 922.32 452.782L943.267 439.452L964.214 452.782C966.371 454.153 967.681 456.537 967.681 459.098C967.681 465.011 961.156 468.593 956.171 465.419L943.267 457.207L930.363 465.419C925.378 468.593 918.853 465.011 918.853 459.098Z" fill="black" fill-opacity="0.7"/>
<defs>
<linearGradient id="paint0_linear_310_478" x1="474.963" y1="208.628" x2="941.047" y2="359.551" gradientUnits="userSpaceOnUse">
<stop stop-color="#AAEAFF"/>
<stop offset="1" stop-color="#35CEFB"/>
</linearGradient>
<linearGradient id="paint1_linear_310_478" x1="1540.3" y1="754.613" x2="952.305" y2="234.6" gradientUnits="userSpaceOnUse">
<stop stop-color="white"/>
<stop offset="1" stop-color="#01F8F8"/>
</linearGradient>
</defs>
</svg>
