<svg width="18" height="18" viewBox="0 0 18 18" fill="none" xmlns="http://www.w3.org/2000/svg">
<g clip-path="url(#clip0_310_475)">
<path d="M3.74382 13.2944L7.45407 17.6362H9.8131C11.1106 17.6362 12.1721 17.6197 12.1721 17.5996C12.1721 17.5795 10.9375 16.1182 9.42849 14.3524C7.88926 12.5513 6.68484 11.1046 6.68484 11.0568C6.68484 10.9763 6.9823 10.9711 12.2449 10.9594L17.8049 10.947V8.9038V6.86055L12.2657 6.84821C7.02287 6.83654 6.72641 6.83132 6.72641 6.75078C6.72641 6.70304 7.92191 5.26675 9.44927 3.47947C10.9468 1.72706 12.1721 0.276783 12.1721 0.256639C12.1721 0.236496 11.1108 0.220013 9.81356 0.220013H7.45498L3.74428 4.56154C1.70339 6.94937 0.0335693 8.91422 0.0335693 8.92785C0.0335693 8.94149 1.70318 10.9065 3.74382 13.2944Z" fill="#030D22"/>
</g>
<defs>
<clipPath id="clip0_310_475">
<rect width="18" height="18" fill="white" transform="matrix(0 -1 -1 0 18 18)"/>
</clipPath>
</defs>
</svg>
