<svg width="196" height="109" viewBox="0 0 196 109" fill="none" xmlns="http://www.w3.org/2000/svg">
<path d="M66.0232 108.793V27.3436L130.594 0.193848V71.1533L66.0232 108.793Z" fill="url(#paint0_linear_786_5)"/>
<path d="M64.5707 108.793V27.3439L6.84963 3.07419C3.59623 1.70621 0 4.09532 0 7.6246V65.4812C0 68.9934 1.86617 72.2415 4.90071 74.0105L64.5707 108.793Z" fill="#EAEAEA"/>
<path d="M188.578 104.466C191.868 106.384 196 104.011 196 100.202V33.902C196 29.9283 193.617 26.342 189.954 24.8014L131.429 0.193848V71.1533L188.578 104.466Z" fill="url(#paint1_linear_786_5)"/>
<path d="M28.2195 58.721C28.1232 59.6848 27.5932 60.2068 26.6287 60.2876C26.1789 60.2876 25.7852 60.1426 25.4477 59.8532C25.1262 59.5484 24.9658 59.1708 24.9658 58.721V47.344C24.9819 46.8942 25.1503 46.5246 25.4718 46.2352C25.7933 45.9298 26.1789 45.7773 26.6287 45.7773H36.7519C38.1661 45.8255 39.2348 46.1389 39.958 46.7171C40.6812 47.2798 41.2032 47.9228 41.5247 48.6453C41.8462 49.3685 42.0066 50.0997 42.0066 50.8389C42.0066 51.6102 41.8462 52.3574 41.5247 53.0806C41.2192 53.8038 40.6972 54.4541 39.958 55.0329C39.2348 55.595 38.3111 55.8684 37.1863 55.8524H31.1121C30.6623 55.8524 30.2847 55.6919 29.9793 55.3704C29.6578 55.065 29.4974 54.6874 29.4974 54.2376C29.4974 53.7877 29.6498 53.4101 29.9552 53.1047C30.2767 52.7832 30.6623 52.6228 31.1121 52.6228H37.3307C37.6361 52.6228 37.8848 52.5259 38.0779 52.3334C38.2865 52.1242 38.4395 51.8916 38.5357 51.6343C38.632 51.3609 38.6801 51.0882 38.6801 50.8149C38.6801 50.5575 38.632 50.3009 38.5357 50.0436C38.4395 49.7702 38.2865 49.5376 38.0779 49.3444C37.8848 49.1359 37.6361 49.023 37.3307 49.0069H28.8464C28.4286 49.023 28.2195 49.2321 28.2195 49.6338V58.721Z" fill="black"/>
<path d="M170.139 47.3921C170.139 47.842 169.978 48.2196 169.657 48.525C169.351 48.8465 168.974 49.0069 168.524 49.0069H158.883C158.577 49.023 158.32 49.0958 158.111 49.2241C157.919 49.3364 157.774 49.4734 157.678 49.6338C157.581 49.7782 157.533 49.9313 157.533 50.0917C157.533 50.2527 157.581 50.4132 157.678 50.5736C157.774 50.7186 157.919 50.855 158.111 50.9833C158.32 51.0962 158.577 51.1604 158.883 51.1764H165.728C166.853 51.2085 167.777 51.4738 168.5 51.9718C169.239 52.4537 169.761 53.0164 170.066 53.6588C170.388 54.2857 170.548 54.9286 170.548 55.587C170.548 56.23 170.388 56.8729 170.066 57.5153C169.745 58.1422 169.223 58.7049 168.5 59.2029C167.777 59.6848 166.853 59.926 165.728 59.926H165.584C165.487 59.9421 165.39 59.9501 165.294 59.9501H156.183C155.733 59.9501 155.348 59.7971 155.026 59.4923C154.721 59.1708 154.568 58.7851 154.568 58.3353C154.568 57.8849 154.729 57.5073 155.05 57.2024C155.356 56.881 155.733 56.7199 156.183 56.7199H165.872C166.178 56.736 166.427 56.6798 166.62 56.5515C166.829 56.4231 166.981 56.2781 167.077 56.1177C167.174 55.9406 167.222 55.7641 167.222 55.587C167.222 55.4747 167.174 55.3223 167.077 55.1292C166.981 54.9206 166.829 54.7516 166.62 54.6232C166.427 54.4949 166.178 54.4221 165.872 54.406H159.028C157.903 54.3739 156.97 54.1172 156.231 53.6347C155.508 53.1528 154.986 52.6067 154.665 51.9959C154.359 51.369 154.207 50.7346 154.207 50.0917C154.207 49.4654 154.367 48.8465 154.689 48.2356C155.01 47.6093 155.532 47.0546 156.255 46.5727C156.978 46.0908 157.903 45.8335 159.028 45.8014H159.172C159.268 45.7854 159.364 45.7773 159.461 45.7773H168.524C168.974 45.7773 169.351 45.9378 169.657 46.2593C169.978 46.5647 170.139 46.9423 170.139 47.3921Z" fill="black"/>
<path d="M94.9518 45.7773H105.123C105.573 45.7934 105.942 45.9618 106.232 46.2833C106.537 46.6048 106.69 46.9904 106.69 47.4403C106.609 48.4047 106.087 48.9267 105.123 49.0069H95.7712C95.1603 49.039 94.6544 49.2723 94.2527 49.706C93.851 50.1398 93.5536 50.6384 93.361 51.2005C93.184 51.7466 93.0957 52.3093 93.0957 52.8875C93.0957 53.4663 93.184 54.0364 93.361 54.5991C93.5536 55.1452 93.851 55.6358 94.2527 56.0695C94.6544 56.5033 95.1603 56.736 95.7712 56.768H103.099C103.388 56.752 103.54 56.5916 103.556 56.2861V54.8885C103.54 54.5671 103.388 54.406 103.099 54.406H96.9282C96.4783 54.406 96.0927 54.2536 95.7712 53.9482C95.4658 53.6267 95.3134 53.241 95.3134 52.7912C95.3134 52.3414 95.4658 51.9558 95.7712 51.6343C96.0927 51.3288 96.4783 51.1764 96.9282 51.1764H105.171C105.621 51.1764 106.007 51.3288 106.328 51.6343C106.618 51.9397 106.77 52.3093 106.786 52.7431V58.4316C106.77 58.8654 106.618 59.2269 106.328 59.5163C106.023 59.8212 105.654 59.9822 105.219 59.9982H94.9518C93.8269 59.9341 92.8946 59.5083 92.156 58.721C91.4328 57.917 90.9102 57.0093 90.5887 55.9967C90.2839 54.9848 90.1309 53.9482 90.1309 52.8875C90.1309 51.8274 90.2919 50.7908 90.6134 49.7782C90.9342 48.7663 91.4569 47.866 92.18 47.0787C92.9026 46.2753 93.8269 45.8415 94.9518 45.7773Z" fill="black"/>
<path d="M61.7039 97.7312C61.7039 98.0872 61.8859 98.4185 62.1858 98.6092L65.0976 100.462L68.0094 98.6092C68.3093 98.4185 68.4913 98.0872 68.4913 97.7312C68.4913 96.9093 67.5842 96.4113 66.8913 96.8525L65.0976 97.994L63.3038 96.8525C62.6109 96.4113 61.7039 96.9093 61.7039 97.7312Z" fill="black"/>
<path d="M61.7039 36.028C61.7039 36.3841 61.8859 36.7154 62.1858 36.9061L65.0976 38.759L68.0094 36.9061C68.3093 36.7154 68.4913 36.3841 68.4913 36.028C68.4913 35.2061 67.5842 34.7082 66.8913 35.1494L65.0976 36.2909L63.3038 35.1494C62.6109 34.7082 61.7039 35.2061 61.7039 36.028Z" fill="black"/>
<path d="M127.727 10.3293C127.727 9.97338 127.909 9.64202 128.209 9.45093L131.121 7.59814L134.033 9.45093C134.332 9.64202 134.514 9.97338 134.514 10.3293C134.514 11.1509 133.607 11.6488 132.915 11.2077L131.121 10.0663L129.327 11.2077C128.634 11.6488 127.727 11.1509 127.727 10.3293Z" fill="black"/>
<path d="M127.727 64.0118C127.727 63.6557 127.909 63.3244 128.209 63.1337L131.121 61.2808L134.033 63.1337C134.332 63.3244 134.514 63.6557 134.514 64.0118C134.514 64.8337 133.607 65.3316 132.915 64.8904L131.121 63.7489L129.327 64.8904C128.634 65.3316 127.727 64.8337 127.727 64.0118Z" fill="black"/>
<defs>
<linearGradient id="paint0_linear_786_5" x1="66.0232" y1="29.1947" x2="130.812" y2="50.174" gradientUnits="userSpaceOnUse">
<stop stop-color="#AAEAFF"/>
<stop offset="1" stop-color="#35CEFB"/>
</linearGradient>
<linearGradient id="paint1_linear_786_5" x1="214.113" y1="105.09" x2="132.377" y2="32.8049" gradientUnits="userSpaceOnUse">
<stop stop-color="white"/>
<stop offset="1" stop-color="#01F8F8"/>
</linearGradient>
</defs>
</svg>
