<svg width="24" height="24" viewBox="0 0 24 24" fill="none" xmlns="http://www.w3.org/2000/svg">
<g clip-path="url(#clip0_108_2136)">
<path d="M14.8032 4.14282C16.0148 4.46798 17.1195 5.10608 18.0065 5.9931C18.8935 6.88012 19.5316 7.98484 19.8568 9.19639" stroke="black" stroke-linecap="round" stroke-linejoin="round"/>
<path d="M14.0625 6.90161C14.7912 7.09513 15.4557 7.47785 15.9889 8.01096C16.522 8.54408 16.9047 9.20865 17.0982 9.93733" stroke="black" stroke-linecap="round" stroke-linejoin="round"/>
<path d="M8.83008 11.7142C9.5651 13.2321 10.7925 14.4563 12.3122 15.1875C12.4243 15.2405 12.5483 15.2635 12.672 15.2541C12.7957 15.2447 12.9148 15.2033 13.0176 15.1339L15.2497 13.6428C15.3483 13.5759 15.4623 13.5351 15.581 13.5242C15.6996 13.5133 15.8191 13.5326 15.9283 13.5803L20.1069 15.375C20.2497 15.4344 20.369 15.5391 20.4464 15.673C20.5239 15.807 20.5551 15.9626 20.5354 16.116C20.403 17.1497 19.8984 18.0997 19.1162 18.7883C18.3339 19.4769 17.3276 19.8569 16.2854 19.8571C13.0649 19.8571 9.97637 18.5778 7.69914 16.3005C5.42191 14.0233 4.14258 10.9347 4.14258 7.71425C4.14281 6.6721 4.52277 5.66575 5.21135 4.88349C5.89993 4.10124 6.84995 3.59668 7.88365 3.46425C8.03708 3.44454 8.19273 3.47581 8.32664 3.55325C8.46054 3.63069 8.56528 3.75 8.62472 3.89282L10.4194 8.08032C10.466 8.18777 10.4856 8.30505 10.4762 8.42183C10.4669 8.53861 10.429 8.65129 10.3658 8.74996L8.87472 11.0178C8.80834 11.1204 8.76938 11.2383 8.76156 11.3602C8.75374 11.4821 8.77734 11.604 8.83008 11.7142Z" stroke="black" stroke-linecap="round" stroke-linejoin="round"/>
</g>
<defs>
<clipPath id="clip0_108_2136">
<rect width="22.8571" height="22.8571" fill="white" transform="translate(0.571289 0.571289)"/>
</clipPath>
</defs>
</svg>
