<svg width="18" height="18" viewBox="0 0 18 18" fill="#2DCDFC" xmlns="http://www.w3.org/2000/svg">
<g clip-path="url(#clip0_310_530)">
<path d="M14.2562 13.2944L10.5459 17.6362H8.1869C6.88943 17.6362 5.82786 17.6197 5.82786 17.5996C5.82786 17.5795 7.06251 16.1182 8.57151 14.3524C10.1107 12.5513 11.3152 11.1046 11.3152 11.0568C11.3152 10.9763 11.0177 10.9711 5.75511 10.9594L0.195068 10.947L0.195068 8.9038L0.195068 6.86055L5.73433 6.84821C10.9771 6.83654 11.2736 6.83132 11.2736 6.75078C11.2736 6.70304 10.0781 5.26675 8.55073 3.47947C7.05315 1.72706 5.82786 0.276783 5.82786 0.256639C5.82786 0.236496 6.88922 0.220013 8.18644 0.220013H10.545L14.2557 4.56154C16.2966 6.94937 17.9664 8.91422 17.9664 8.92785C17.9664 8.94149 16.2968 10.9065 14.2562 13.2944Z" fill="#2DCDFC"/>
</g>
<defs>
<clipPath id="clip0_310_530">
<rect width="18" height="18" fill="white" transform="matrix(0 -1 1 0 0 18)"/>
</clipPath>
</defs>
</svg>
