<svg width="83" height="86" viewBox="0 0 83 86" fill="none" xmlns="http://www.w3.org/2000/svg">
<path d="M74.9726 36.5642C78.8689 32.3354 78.4766 26.9048 78.4642 26.8429V10.3241C78.4642 9.77649 78.2467 9.25129 77.8594 8.86406C77.4722 8.47682 76.947 8.25928 76.3994 8.25928H64.0103C61.7328 8.25928 59.8806 10.1114 59.8806 12.389V26.8429C59.8806 27.3905 60.0981 27.9157 60.4854 28.303C60.8726 28.6902 61.3978 28.9077 61.9454 28.9077H68.301C68.2574 29.9286 67.9524 30.9211 67.4152 31.7903C66.3663 33.4442 64.3902 34.5737 61.5387 35.1436L59.8806 35.474V41.2968H61.9454C67.6919 41.2968 72.0756 39.7048 74.9726 36.5642ZM52.2448 36.5642C56.1432 32.3354 55.7488 26.9048 55.7365 26.8429V10.3241C55.7365 9.77649 55.5189 9.25129 55.1317 8.86406C54.7444 8.47682 54.2192 8.25928 53.6716 8.25928H41.2825C39.005 8.25928 37.1528 10.1114 37.1528 12.389V26.8429C37.1528 27.3905 37.3704 27.9157 37.7576 28.303C38.1448 28.6902 38.67 28.9077 39.2177 28.9077H45.5733C45.5297 29.9286 45.2246 30.9211 44.6875 31.7903C43.6385 33.4442 41.6625 34.5737 38.8109 35.1436L37.1528 35.474V41.2968H39.2177C44.9641 41.2968 49.3478 39.7048 52.2448 36.5642Z" fill="url(#paint0_linear_310_457)"/>
<path opacity="0.5" d="M57.0367 19.8228H8.55256C3.82911 19.8228 0 23.6519 0 28.3753V76.8595C0 81.583 3.82911 85.4121 8.55256 85.4121H57.0367C61.7602 85.4121 65.5893 81.583 65.5893 76.8595V28.3753C65.5893 23.6519 61.7602 19.8228 57.0367 19.8228Z" fill="url(#paint1_linear_310_457)"/>
<defs>
<linearGradient id="paint0_linear_310_457" x1="90.0734" y1="41.2796" x2="68.0506" y2="1.67922" gradientUnits="userSpaceOnUse">
<stop stop-color="white"/>
<stop offset="1" stop-color="#01F8F8"/>
</linearGradient>
<linearGradient id="paint1_linear_310_457" x1="8.96819e-08" y1="37.3381" x2="56.0791" y2="67.8789" gradientUnits="userSpaceOnUse">
<stop stop-color="#35CEFB"/>
<stop offset="1" stop-color="#00C5FF"/>
</linearGradient>
</defs>
</svg>
