<svg width="119" height="88" viewBox="0 0 119 88" fill="none" xmlns="http://www.w3.org/2000/svg">
<g opacity="0.5">
<path d="M55.1712 85.1042L1.26903 28.6981C0.550874 27.945 0.107992 26.953 0.0173215 25.8944C-0.073349 24.8357 0.19392 23.7774 0.772692 22.9032L13.7403 3.25857C14.4043 2.25362 15.292 1.43202 16.3272 0.864428C17.3623 0.296836 18.514 0.000207269 19.6831 1.3801e-07H98.8836C100.053 -0.00023351 101.205 0.296207 102.24 0.863837C103.275 1.43147 104.163 2.2533 104.826 3.25857L117.794 22.9032C118.373 23.7774 118.64 24.8357 118.549 25.8944C118.459 26.953 118.016 27.945 117.298 28.6981L63.3955 85.1042C62.8572 85.6713 62.2166 86.1213 61.5108 86.4285C60.805 86.7357 60.048 86.8938 59.2834 86.8938C58.5187 86.8938 57.7617 86.7357 57.0559 86.4285C56.3501 86.1213 55.7095 85.6713 55.1712 85.1042Z" fill="url(#paint0_linear_496_411)"/>
<g opacity="0.5">
<mask id="mask0_496_411" style="mask-type:luminance" maskUnits="userSpaceOnUse" x="0" y="0" width="119" height="88">
<path d="M55.36 85.3955L1.27337 28.7963C0.552759 28.0406 0.108362 27.0452 0.0173808 25.983C-0.0736001 24.9208 0.194584 23.8588 0.775337 22.9816L13.7873 3.26972C14.4536 2.26134 15.3444 1.43692 16.383 0.867386C17.4217 0.297852 18.5773 0.000207978 19.7505 1.38483e-07H99.222C100.395 -0.00023431 101.551 0.297221 102.59 0.866794C103.629 1.43637 104.519 2.26102 105.185 3.26972L118.197 22.9816C118.778 23.8588 119.046 24.9208 118.955 25.983C118.864 27.0452 118.42 28.0406 117.699 28.7963L63.6125 85.3955C63.0723 85.9645 62.4296 86.4161 61.7213 86.7243C61.0131 87.0325 60.2535 87.1912 59.4863 87.1912C58.719 87.1912 57.9594 87.0325 57.2512 86.7243C56.543 86.4161 55.9002 85.9645 55.36 85.3955Z" fill="white"/>
</mask>
<g mask="url(#mask0_496_411)">
<path d="M59.0323 96.276L57.583 96.7961L34.7979 27.4683H-4.66309V24.7793H34.6817L13.5135 -1.91921L15.5057 -3.63379L36.5792 22.9434L57.6528 -3.63379L59.3677 -2.15149L61.0826 -3.63379L82.1561 22.9434L103.23 -3.63379L105.214 -1.91921L84.0454 24.7793H123.634V27.4683H83.2667L60.4816 96.7944L59.0323 96.276ZM59.0323 92.9196L80.5442 27.4683H37.5222L59.0323 92.9196ZM38.4568 24.7863H80.257L59.356 -1.56553L38.4568 24.7863Z" fill="white"/>
</g>
</g>
</g>
<defs>
<linearGradient id="paint0_linear_496_411" x1="1.62119e-07" y1="23.2046" x2="84.6803" y2="86.1314" gradientUnits="userSpaceOnUse">
<stop stop-color="#35CEFB"/>
<stop offset="1" stop-color="#00B0E3"/>
</linearGradient>
</defs>
</svg>
