<svg width="108" height="110" viewBox="0 0 108 110" fill="none" xmlns="http://www.w3.org/2000/svg">
<path d="M98.5064 51.7827H67.4591C67.0542 51.7821 66.6619 51.9026 66.3505 52.1231C66.0392 52.3435 65.8286 52.65 65.7555 52.9892C65.4679 54.3074 64.7179 55.5205 63.6046 56.4686C62.4912 57.4166 61.0666 58.0552 59.5185 58.3001C59.1204 58.3627 58.7607 58.5421 58.5018 58.8072C58.243 59.0722 58.1014 59.4061 58.1017 59.7509V85.2515C58.1019 87.7144 58.7625 90.1447 60.0331 92.3573C61.3036 94.5698 63.1506 96.5061 65.4332 98.0186L81.9197 108.942C82.2243 109.143 82.599 109.253 82.9848 109.253C83.3705 109.253 83.7452 109.143 84.0498 108.942L100.536 98.0186C102.819 96.5061 104.666 94.5698 105.936 92.3573C107.207 90.1447 107.868 87.7144 107.868 85.2515V59.7509C107.868 59.4061 107.727 59.0722 107.468 58.8072C107.209 58.5421 106.849 58.3627 106.451 58.3001C104.903 58.0552 103.478 57.4166 102.365 56.4686C101.252 55.5205 100.502 54.3074 100.214 52.9892C100.14 52.6496 99.9291 52.3428 99.617 52.1224C99.305 51.9019 98.9119 51.7817 98.5064 51.7827Z" fill="url(#paint0_linear_496_421)"/>
<path opacity="0.5" d="M75.4391 7.17229e-06H17.471C16.7152 -0.000679199 15.983 0.224044 15.4015 0.63516C14.82 1.04628 14.4259 1.61782 14.2877 2.25056C13.7515 4.71179 12.3519 6.97685 10.2734 8.74704C8.19493 10.5172 5.53518 11.7094 2.64491 12.1664C1.90149 12.2837 1.22986 12.6191 0.746671 13.1143C0.263483 13.6096 -0.000719594 14.2333 1.47206e-06 14.8771V62.4834C0.000495311 67.0814 1.23363 71.6186 3.60545 75.7493C5.97726 79.88 9.42519 83.4951 13.6864 86.3192L44.4684 106.713C45.0374 107.09 45.7374 107.294 46.458 107.294C47.1786 107.294 47.8786 107.09 48.4476 106.713L79.2276 86.3192C83.4892 83.4954 86.9373 79.8803 89.3091 75.7496C91.681 71.6188 92.914 67.0814 92.914 62.4834V14.8771C92.9147 14.2333 92.6505 13.6096 92.1673 13.1143C91.6842 12.6191 91.0125 12.2837 90.2691 12.1664C87.3788 11.7094 84.7191 10.5172 82.6406 8.74704C80.5621 6.97685 79.1625 4.71179 78.6264 2.25056C78.488 1.61726 78.0934 1.04527 77.5111 0.634087C76.9287 0.222905 76.1956 -0.00146228 75.4391 7.17229e-06Z" fill="url(#paint1_linear_496_421)"/>
<path d="M42.0101 58.0627C41.2286 58.0621 40.4794 57.7973 39.9271 57.3264L24.3111 44.0289C23.7742 43.5556 23.4772 42.9215 23.4839 42.2635C23.4906 41.6054 23.8006 40.9759 24.3471 40.5105C24.8936 40.0451 25.6329 39.7812 26.4057 39.7755C27.1785 39.7697 27.923 40.0227 28.4789 40.4799L42.0101 52.0021L69.597 28.5127C70.1529 28.0555 70.8974 27.8025 71.6703 27.8082C72.4431 27.8139 73.1824 28.0779 73.7289 28.5432C74.2754 29.0086 74.5854 29.6381 74.5921 30.2962C74.5988 30.9543 74.3017 31.5883 73.7648 32.0617L44.093 57.3281C43.5405 57.7983 42.7913 58.0625 42.0101 58.0627Z" fill="white"/>
<defs>
<linearGradient id="paint0_linear_496_421" x1="121.828" y1="109.223" x2="77.7915" y2="54.4088" gradientUnits="userSpaceOnUse">
<stop stop-color="#01F8F8"/>
<stop offset="1" stop-color="#01F8F8"/>
</linearGradient>
<linearGradient id="paint1_linear_496_421" x1="1.27044e-07" y1="28.6524" x2="84.2621" y2="68.3914" gradientUnits="userSpaceOnUse">
<stop stop-color="#35CEFB"/>
<stop offset="1" stop-color="#00B0E3"/>
</linearGradient>
</defs>
</svg>
