<svg width="108" height="110" viewBox="0 0 108 110" fill="none" xmlns="http://www.w3.org/2000/svg">
<path d="M98.9596 51.4131H48.7492C43.8575 51.4131 39.8921 54.7898 39.8921 58.9552V101.711C39.8921 105.876 43.8575 109.253 48.7492 109.253H98.9596C103.851 109.253 107.817 105.876 107.817 101.711V58.9552C107.817 54.7898 103.851 51.4131 98.9596 51.4131Z" fill="url(#paint0_linear_496_425)"/>
<path opacity="0.5" d="M77.6929 0H9.63875C4.31543 0 0 3.67037 0 8.198V93.2512C0 97.7789 4.31543 101.449 9.63875 101.449H77.6929C83.0162 101.449 87.3316 97.7789 87.3316 93.2512V8.198C87.3316 3.67037 83.0162 0 77.6929 0Z" fill="url(#paint1_linear_496_425)"/>
<path d="M60.8192 21.575H26.513C25.6303 21.575 24.7837 21.2852 24.159 20.7693C23.5343 20.2534 23.1825 19.5535 23.1809 18.8232C23.1809 18.0921 23.532 17.3909 24.1569 16.8739C24.7818 16.3569 25.6293 16.0664 26.513 16.0664H60.8192C61.2568 16.0664 61.6901 16.1377 62.0944 16.2763C62.4986 16.4148 62.866 16.6179 63.1754 16.8739C63.4848 17.1298 63.7302 17.4338 63.8977 17.7682C64.0651 18.1027 64.1513 18.4612 64.1513 18.8232C64.1497 19.5535 63.7979 20.2534 63.1732 20.7693C62.5485 21.2852 61.7019 21.575 60.8192 21.575Z" fill="white"/>
<path d="M60.8192 37.6419H26.513C26.0751 37.6419 25.6415 37.5647 25.2369 37.4146C24.8324 37.2646 24.4649 37.0447 24.1554 36.7675C23.846 36.4903 23.6006 36.1612 23.4334 35.7991C23.2662 35.437 23.1804 35.049 23.1809 34.6572C23.1806 34.2656 23.2666 33.8777 23.434 33.5158C23.6013 33.154 23.8467 32.8251 24.1561 32.5481C24.4656 32.2711 24.833 32.0513 25.2374 31.9014C25.6418 31.7515 26.0753 31.6743 26.513 31.6743H60.8192C61.257 31.6743 61.6904 31.7515 62.0948 31.9014C62.4992 32.0513 62.8666 32.2711 63.1761 32.5481C63.4855 32.8251 63.7309 33.154 63.8983 33.5158C64.0656 33.8777 64.1516 34.2656 64.1513 34.6572C64.1518 35.049 64.0661 35.437 63.8988 35.7991C63.7316 36.1612 63.4863 36.4903 63.1768 36.7675C62.8674 37.0447 62.4998 37.2646 62.0953 37.4146C61.6908 37.5647 61.2571 37.6419 60.8192 37.6419Z" fill="white"/>
<defs>
<linearGradient id="paint0_linear_496_425" x1="126.87" y1="109.223" x2="87.0662" y2="42.0306" gradientUnits="userSpaceOnUse">
<stop stop-color="#01F8F8"/>
<stop offset="1" stop-color="#01F8F8"/>
</linearGradient>
<linearGradient id="paint1_linear_496_425" x1="1.19411e-07" y1="27.0916" x2="79.3703" y2="64.3016" gradientUnits="userSpaceOnUse">
<stop stop-color="#35CEFB"/>
<stop offset="1" stop-color="#00B0E3"/>
</linearGradient>
</defs>
</svg>
