<svg width="107" height="107" viewBox="0 0 107 107" fill="none" xmlns="http://www.w3.org/2000/svg">
<path d="M106.88 18.3945C106.434 17.0503 105.889 15.7413 105.248 14.4784C105.036 14.0643 104.699 13.7277 104.284 13.5164C103.87 13.3052 103.399 13.2301 102.94 13.3019C100.628 13.638 98.0452 12.8124 96.1135 10.8706C94.1818 8.92885 93.3399 6.35558 93.6825 4.0434C93.7541 3.58349 93.679 3.11272 93.4679 2.69794C93.2567 2.28316 92.9202 1.94548 92.5062 1.73288C91.2431 1.09573 89.9343 0.553587 88.5906 0.110936C88.1529 -0.0340324 87.6806 -0.0369952 87.2411 0.10249C86.8016 0.241976 86.4174 0.516779 86.1434 0.887645C84.7501 2.77394 82.3305 4.02058 79.5782 4.02058C76.8259 4.02058 74.408 2.77394 73.013 0.887645C72.739 0.516779 72.3548 0.241976 71.9153 0.10249C71.4758 -0.0369952 71.0035 -0.0340324 70.5658 0.110936C69.2221 0.553519 67.9133 1.09566 66.6502 1.73288C66.2362 1.94548 65.8997 2.28316 65.6885 2.69794C65.4774 3.11272 65.4022 3.58349 65.4739 4.0434C65.81 6.35558 64.9844 8.93864 63.0429 10.8706C61.1014 12.8026 58.5367 13.6397 56.2265 13.3133C55.7667 13.2417 55.296 13.3168 54.8812 13.528C54.4665 13.7392 54.1289 14.0757 53.9163 14.4898C53.2792 15.7531 52.7371 17.0621 52.2946 18.406C52.1491 18.8437 52.1459 19.3163 52.2854 19.756C52.4249 20.1956 52.7 20.5798 53.0712 20.8536C54.9572 22.2487 56.2037 24.6686 56.2037 27.4197C56.2037 30.1708 54.9572 32.5923 53.0712 33.9858C52.7002 34.2598 52.4253 34.644 52.2858 35.0836C52.1463 35.5232 52.1494 35.9957 52.2946 36.4334C52.7372 37.7773 53.2793 39.0863 53.9163 40.3496C54.1289 40.7637 54.4665 41.1002 54.8812 41.3114C55.296 41.5226 55.7667 41.5977 56.2265 41.5261C58.5367 41.19 61.121 42.0156 63.0527 43.9574C64.9844 45.8992 65.8263 48.4724 65.4837 50.7846C65.412 51.2445 65.4871 51.7153 65.6983 52.1301C65.9095 52.5449 66.246 52.8825 66.66 53.0951C67.9234 53.7317 69.2321 54.2738 70.5756 54.7171C71.0133 54.8621 71.4856 54.865 71.9251 54.7255C72.3646 54.5861 72.7488 54.3112 73.0228 53.9404C74.4178 52.0541 76.8373 50.8058 79.588 50.8058C82.3387 50.8058 84.7598 52.0541 86.1531 53.9404C86.4272 54.3112 86.8114 54.5861 87.2509 54.7255C87.6904 54.865 88.1627 54.8621 88.6004 54.7171C89.9438 54.2737 91.2526 53.7316 92.516 53.0951C92.93 52.8825 93.2665 52.5449 93.4777 52.1301C93.6888 51.7153 93.7639 51.2445 93.6923 50.7846C93.3562 48.4724 94.1818 45.8894 96.1232 43.9574C98.0647 42.0254 100.638 41.1834 102.949 41.5261C103.409 41.5979 103.88 41.5228 104.294 41.3116C104.709 41.1003 105.046 40.7637 105.258 40.3496C105.898 39.0866 106.444 37.7776 106.89 36.4334C107.034 35.9956 107.037 35.5234 106.897 35.0839C106.758 34.6445 106.483 34.2602 106.113 33.9858C104.227 32.5923 102.979 30.1725 102.979 27.4197C102.979 24.667 104.227 22.2487 106.113 20.8536C106.484 20.5775 106.759 20.1907 106.896 19.7489C107.034 19.3071 107.028 18.8329 106.88 18.3945ZM79.8441 40.9778C77.1387 41.0294 74.4796 40.2708 72.2084 38.7994C69.9373 37.328 68.1579 35.2111 67.0989 32.7206C66.0398 30.2302 65.7494 27.4799 66.2651 24.8231C66.7807 22.1663 68.0788 19.7244 69.9925 17.8111C71.9063 15.8978 74.3483 14.6004 77.0049 14.0857C79.6615 13.5709 82.4113 13.8623 84.901 14.9225C87.3907 15.9826 89.5066 17.7631 90.9769 20.0351C92.4473 22.307 93.2048 24.9668 93.1523 27.6726C93.0846 31.181 91.6606 34.5268 89.1792 37.0076C86.6978 39.4884 83.352 40.9114 79.8441 40.9778Z" fill="url(#paint0_linear_496_418)"/>
<path opacity="0.5" d="M83.962 51.0895C83.2808 49.0286 82.4481 47.021 81.4707 45.083C81.1447 44.4475 80.6265 43.931 79.9901 43.607C79.3536 43.283 78.6311 43.168 77.9255 43.2783C74.377 43.7923 70.4206 42.5196 67.4463 39.5466C64.4721 36.5735 63.2044 32.6133 63.7151 29.0659C63.8256 28.36 63.7104 27.6372 63.3861 27.0005C63.0618 26.3638 62.5449 25.8458 61.909 25.5201C59.9723 24.5417 57.9655 23.7088 55.9051 23.0285C55.2326 22.8049 54.5067 22.7999 53.8312 23.0142C53.1557 23.2285 52.5653 23.651 52.1445 24.2213C50.004 27.116 46.2907 29.0316 42.0667 29.0316C37.8428 29.0316 34.1295 27.116 31.9889 24.2213C31.5679 23.6508 30.9772 23.2283 30.3014 23.014C29.6256 22.7997 28.8994 22.8048 28.2267 23.0285C26.1664 23.7091 24.1596 24.5419 22.2228 25.5201C21.5872 25.846 21.0706 26.3642 20.7466 27.0008C20.4226 27.6375 20.3077 28.3601 20.4183 29.0659C20.9322 32.6133 19.6597 36.5719 16.6854 39.5466C13.7112 42.5212 9.75483 43.7891 6.20631 43.2783C5.50069 43.168 4.77823 43.283 4.14173 43.607C3.50523 43.931 2.9871 44.4475 2.66106 45.083C1.68422 47.021 0.852063 49.0287 0.17139 51.0895C-0.0502082 51.761 -0.0542223 52.4853 0.159929 53.1592C0.37408 53.8331 0.795466 54.4222 1.36402 54.8425C4.2583 56.9833 6.17368 60.6972 6.17368 64.9217C6.17368 69.1463 4.2583 72.8602 1.36238 75.001C0.79266 75.4222 0.370676 76.0128 0.156767 76.6883C-0.0571419 77.3638 -0.052021 78.0897 0.17139 78.7622C0.852493 80.8285 1.68688 82.8411 2.66759 84.7833C2.99511 85.417 3.51386 85.9314 4.15024 86.2536C4.78662 86.5758 5.50829 86.6894 6.21284 86.5782C9.76135 86.0626 13.7177 87.3369 16.692 90.3116C19.6662 93.2862 20.9339 97.2432 20.4248 100.791C20.3142 101.496 20.4291 102.219 20.7531 102.856C21.0771 103.492 21.5937 104.011 22.2293 104.336C24.1661 105.315 26.1729 106.147 28.2332 106.828C28.9059 107.052 29.6322 107.057 30.3079 106.843C30.9837 106.628 31.5744 106.206 31.9954 105.635C34.136 102.741 37.8493 100.825 42.0732 100.825C46.2972 100.825 50.0105 102.741 52.151 105.635C52.5718 106.206 53.1622 106.628 53.8377 106.842C54.5132 107.057 55.2391 107.052 55.9116 106.828C57.972 106.148 59.9789 105.315 61.9156 104.336C62.5515 104.011 63.0684 103.493 63.3927 102.856C63.717 102.219 63.8321 101.497 63.7216 100.791C63.2061 97.2432 64.4803 93.2846 67.4529 90.3116C70.4255 87.3386 74.3835 86.0691 77.932 86.5782C78.6365 86.6894 79.3582 86.5758 79.9946 86.2536C80.631 85.9314 81.1497 85.417 81.4772 84.7833C82.4527 82.843 83.2832 80.8332 83.962 78.7703C84.1848 78.0976 84.1894 77.3718 83.9752 76.6964C83.761 76.021 83.339 75.4305 82.7694 75.0092C79.8751 72.8683 77.9597 69.1545 77.9597 64.9299C77.9597 60.7053 79.8751 56.9915 82.7694 54.8506C83.339 54.4293 83.761 53.8388 83.9752 53.1634C84.1894 52.488 84.1848 51.7621 83.962 51.0895ZM42.4681 85.7623C39.6669 85.8153 36.8839 85.3025 34.2856 84.2547C31.6872 83.207 29.3269 81.6457 27.3458 79.6644C25.3648 77.683 23.8037 75.3224 22.7561 72.7236C21.7085 70.1249 21.1958 67.3414 21.2487 64.5399C21.4543 53.4033 30.5483 44.3145 41.6768 44.1073C44.478 44.0541 47.2611 44.5667 49.8595 45.6144C52.458 46.6621 54.8184 48.2233 56.7995 50.2047C58.7806 52.1861 60.3417 54.5469 61.3892 57.1457C62.4367 59.7446 62.9493 62.5281 62.8961 65.3297C62.6905 76.4614 53.6047 85.5502 42.4681 85.7623Z" fill="url(#paint1_linear_496_418)"/>
<defs>
<linearGradient id="paint0_linear_496_418" x1="122.376" y1="54.7994" x2="82.0361" y2="-3.17591" gradientUnits="userSpaceOnUse">
<stop stop-color="#01F8F8"/>
<stop offset="1" stop-color="#01F8F8"/>
</linearGradient>
<linearGradient id="paint1_linear_496_418" x1="1.15036e-07" y1="45.3269" x2="71.9375" y2="84.4995" gradientUnits="userSpaceOnUse">
<stop stop-color="#35CEFB"/>
<stop offset="1" stop-color="#00B0E3"/>
</linearGradient>
</defs>
</svg>
